<mxfile host="app.diagrams.net" modified="2021-12-18T08:24:47.606Z" agent="5.0 (Windows NT 10.0; Win64; x64) AppleWebKit/537.36 (KHTML, like Gecko) Chrome/96.0.4664.110 Safari/537.36 Edg/96.0.1054.57" etag="i9IkEGaQ2yuzsKXzOiGo" version="15.9.6" type="github">
  <diagram id="5kCPEbj8O_VguJyeRMk1" name="Page-1">
    <mxGraphModel dx="1422" dy="786" grid="1" gridSize="10" guides="1" tooltips="1" connect="1" arrows="1" fold="1" page="1" pageScale="1" pageWidth="827" pageHeight="1169" math="0" shadow="0">
      <root>
        <mxCell id="0" />
        <mxCell id="1" parent="0" />
        <mxCell id="2oxMhazXgls6c4zuCIOu-5" style="edgeStyle=orthogonalEdgeStyle;rounded=0;orthogonalLoop=1;jettySize=auto;html=1;entryX=0.5;entryY=0;entryDx=0;entryDy=0;" edge="1" parent="1" source="2oxMhazXgls6c4zuCIOu-1" target="2oxMhazXgls6c4zuCIOu-2">
          <mxGeometry relative="1" as="geometry" />
        </mxCell>
        <mxCell id="2oxMhazXgls6c4zuCIOu-1" value="&lt;b&gt;başla&lt;/b&gt;" style="ellipse;whiteSpace=wrap;html=1;" vertex="1" parent="1">
          <mxGeometry x="380" y="80" width="120" height="80" as="geometry" />
        </mxCell>
        <mxCell id="2oxMhazXgls6c4zuCIOu-3" style="edgeStyle=orthogonalEdgeStyle;rounded=0;orthogonalLoop=1;jettySize=auto;html=1;" edge="1" parent="1" source="2oxMhazXgls6c4zuCIOu-2">
          <mxGeometry relative="1" as="geometry">
            <mxPoint x="440" y="310" as="targetPoint" />
          </mxGeometry>
        </mxCell>
        <mxCell id="2oxMhazXgls6c4zuCIOu-2" value="&lt;b&gt;x&lt;/b&gt;" style="shape=parallelogram;perimeter=parallelogramPerimeter;whiteSpace=wrap;html=1;fixedSize=1;" vertex="1" parent="1">
          <mxGeometry x="380" y="200" width="120" height="60" as="geometry" />
        </mxCell>
        <mxCell id="2oxMhazXgls6c4zuCIOu-7" style="edgeStyle=orthogonalEdgeStyle;rounded=0;orthogonalLoop=1;jettySize=auto;html=1;entryX=0.5;entryY=0;entryDx=0;entryDy=0;" edge="1" parent="1" source="2oxMhazXgls6c4zuCIOu-4" target="2oxMhazXgls6c4zuCIOu-6">
          <mxGeometry relative="1" as="geometry" />
        </mxCell>
        <mxCell id="2oxMhazXgls6c4zuCIOu-4" value="&lt;b&gt;y&lt;/b&gt;" style="shape=parallelogram;perimeter=parallelogramPerimeter;whiteSpace=wrap;html=1;fixedSize=1;" vertex="1" parent="1">
          <mxGeometry x="380" y="310" width="120" height="60" as="geometry" />
        </mxCell>
        <mxCell id="2oxMhazXgls6c4zuCIOu-9" value="YANLIŞ" style="edgeStyle=orthogonalEdgeStyle;rounded=0;orthogonalLoop=1;jettySize=auto;html=1;" edge="1" parent="1" source="2oxMhazXgls6c4zuCIOu-6">
          <mxGeometry relative="1" as="geometry">
            <mxPoint x="440" y="550" as="targetPoint" />
          </mxGeometry>
        </mxCell>
        <mxCell id="2oxMhazXgls6c4zuCIOu-10" value="DOĞRU" style="edgeStyle=orthogonalEdgeStyle;rounded=0;orthogonalLoop=1;jettySize=auto;html=1;" edge="1" parent="1" source="2oxMhazXgls6c4zuCIOu-6" target="2oxMhazXgls6c4zuCIOu-8">
          <mxGeometry relative="1" as="geometry" />
        </mxCell>
        <mxCell id="2oxMhazXgls6c4zuCIOu-6" value="&lt;b&gt;x&amp;gt;y&lt;/b&gt;" style="rhombus;whiteSpace=wrap;html=1;" vertex="1" parent="1">
          <mxGeometry x="400" y="420" width="80" height="80" as="geometry" />
        </mxCell>
        <mxCell id="2oxMhazXgls6c4zuCIOu-8" value="&lt;b&gt;s = x*y&lt;/b&gt;" style="rounded=0;whiteSpace=wrap;html=1;" vertex="1" parent="1">
          <mxGeometry x="210" y="430" width="120" height="60" as="geometry" />
        </mxCell>
        <mxCell id="2oxMhazXgls6c4zuCIOu-12" style="edgeStyle=orthogonalEdgeStyle;rounded=0;orthogonalLoop=1;jettySize=auto;html=1;" edge="1" parent="1" source="2oxMhazXgls6c4zuCIOu-11">
          <mxGeometry relative="1" as="geometry">
            <mxPoint x="440" y="660" as="targetPoint" />
          </mxGeometry>
        </mxCell>
        <mxCell id="2oxMhazXgls6c4zuCIOu-11" value="&lt;b&gt;s = x+y&lt;/b&gt;" style="rounded=0;whiteSpace=wrap;html=1;" vertex="1" parent="1">
          <mxGeometry x="380" y="554.5" width="120" height="60" as="geometry" />
        </mxCell>
        <mxCell id="2oxMhazXgls6c4zuCIOu-17" style="edgeStyle=orthogonalEdgeStyle;rounded=0;orthogonalLoop=1;jettySize=auto;html=1;entryX=0.5;entryY=0;entryDx=0;entryDy=0;" edge="1" parent="1" source="2oxMhazXgls6c4zuCIOu-13" target="2oxMhazXgls6c4zuCIOu-14">
          <mxGeometry relative="1" as="geometry" />
        </mxCell>
        <mxCell id="2oxMhazXgls6c4zuCIOu-13" value="&lt;b&gt;değer&lt;/b&gt;" style="shape=document;whiteSpace=wrap;html=1;boundedLbl=1;" vertex="1" parent="1">
          <mxGeometry x="380" y="670" width="120" height="80" as="geometry" />
        </mxCell>
        <mxCell id="2oxMhazXgls6c4zuCIOu-14" value="&lt;b&gt;dur&lt;/b&gt;" style="ellipse;whiteSpace=wrap;html=1;" vertex="1" parent="1">
          <mxGeometry x="380" y="800" width="120" height="80" as="geometry" />
        </mxCell>
      </root>
    </mxGraphModel>
  </diagram>
</mxfile>
